<svg xmlns="http://www.w3.org/2000/svg" viewBox="0 0 1024 1024">
  <rect x="64" y="64" width="896" height="896" rx="208" fill="#15201D"/>
  <g transform="translate(180 180) scale(10.5)">
    <path d="M9 9 C 17 10.5 24 12.5 28.5 15.5 C 31 14.6 33.5 14 36 14 C 48.2 14 58 23.8 58 36 C 58 48.2 48.2 58 36 58 C 23.8 58 14 48.2 14 36 C 14 33 14.6 30.2 15.6 27.6 C 12.6 22.8 10.4 16.4 9 9 Z" fill="#FF6A4D"/>
    <path d="M22 26 C 25 20 31 17.5 36 17.5" fill="none" stroke="#FFFFFF" stroke-opacity=".45" stroke-width="3" stroke-linecap="round"/>
    <ellipse cx="30" cy="36" rx="3.2" ry="4.4" fill="#15201D"/>
    <ellipse cx="42.5" cy="36" rx="3.2" ry="4.4" fill="#15201D"/>
  </g>
</svg>
